# xmcd
#
# Track frame offsets:
#	150
#	10167
#	22057
#	41800
#	54227
#	68042
#	80632
#	96577
#	110780
#	123262
#	136242
#	147157
#	161460
#	174335
#	187930
#	202950
#	217030
#	227727
#	239997
#	255085
#
# Disc length: 3598
#
# Revision: 1
# Processed by: cddbd v1.5.1PL0 Copyright (c) Steve Scherf et al.
# Submitted via: dBpowerAMP V4.0
# Normalized: r0:TDELIM( - )
#
DISCID=1a0e0c14
DTITLE=Various Artist - Thoughts Of Country
DYEAR=1996
DGENRE=Country
TTITLE0=Back In My Baby's Arms - Daniel O'donnell
TTITLE1=The End Of The World - Mary Duff
TTITLE2=A Million Ways To Fall - Charlie Landsborough
TTITLE3=Crystal Chandeliers - Charley Pride
TTITLE4=You'll Remember Me - Louise Morrissey
TTITLE5=Ashes Of Love - Jimmy Buckley
TTITLE6=Fall In Love Again - Dominic Kirwan
TTITLE7=Turn Back The Years - John Hogan
TTITLE8=Tennessee Waltz - Sean O'Farrell
TTITLE9=Only The Heartaches - Eamon McCann
TTITLE10=Does Mt Ring Hurt Your Finger - Charlet Pride
TTITLE11=Your One And Only - Mary Duff
TTITLE12=Love Bug - Mick Flavin
TTITLE13=You're My Best Friend - Terry Bradford and Sussie Arvesen
TTITLE14=Like Father Like Son - Dominic Kirwan
TTITLE15=Guiltey - Daniel O' Donnell
TTITLE16=Heartaches By The Number - Sarah Jorey
TTITLE17=Your Chaetin' Heart - John Hogan
TTITLE18=I Couldn't Leave you If I Tried - Louise Morrissey
TTITLE19=All I Can Be Is A Sweet Memory - Mick Flavin
EXTD=
EXTT0=
EXTT1=
EXTT2=
EXTT3=
EXTT4=
EXTT5=
EXTT6=
EXTT7=
EXTT8=
EXTT9=
EXTT10=
EXTT11=
EXTT12=
EXTT13=
EXTT14=
EXTT15=
EXTT16=
EXTT17=
EXTT18=
EXTT19=
PLAYORDER=
